<svg viewBox="-1 -1 17 17" xmlns="http://www.w3.org/2000/svg">
	<defs>
		<path d="m-3-2v6l3-3" id="0" fill="#fff"/>
		<path d="m-3 0v2l1 1 1-1v-2l-1-1" id="1"/>
		<path d="m0-6l4 2-1 7-3 5-3-5-1-7" id="b"/>
		<path d="m3-3v2l.5.5 1-3Q5-5 4-5h-2v1zM0 6l1-1 .5.5-1 3Q0 10-.5 8.5l-1-3 .5-.5zM-3-3v2l-.5.5-1-3Q-5-5-4-5h2v1" id="f"/>
	</defs>
	<mask id="m">
		<circle r="999" fill="#fff"/>
		<g transform="scale(.14285715)">
			<use href="#b"/>
			<use href="#f"/>
		</g>
		<g transform="translate(1,3)scale(.14285715)">
			<use href="#b"/>
			<use href="#f"/>
		</g>
	</mask>
	<circle r="999" mask="url(#m)"/>
<!--script id="s">//<![CDATA[
const href = document.defaultView.location.href;
const q_pos = href.indexOf("#") + 1;
const script = document.getElementById("s");	// the id definitely exists

const x = new Int8Array([
 2, 0, 1,-1,
 4, 5, 3, 4,
 0, 1, 2, 3
]);
const y = new Int8Array([
 3, 3, 0, 0,
-3, 0, 0, 3,
-3,-6,-3,-6
]);

if(q_pos)	// if the query exists, it should only include the hex data
{
	const hex = href.substring(q_pos);	// hexadecimal symbol states
	const bin = BigInt("0x" + hex);	//convert to binary
	for(var i = 0; i < 12; ++i)
	{
		const bit = document.createElementNS("http://www.w3.org/2000/svg", "use");
		const bool = Boolean((bin >> BigInt(i)) & 1n);
		
		bit.setAttribute("href", '#'+(+bool));
		if(x[i])	// only set if it's non-zero
			bit.setAttribute("x", x[i].toString());
		if(y[i])	// only set if it's non-zero
			bit.setAttribute("y", y[i].toString());

		if(bool)
			script.after(bit);
		else
			script.before(bit);
	}
	script.remove();
}
//]]></script-->
</svg>