<svg viewBox="-11 -12 204 255" width="8in" height="10in" xmlns="http://www.w3.org/2000/svg">
<defs>
	<ellipse rx="5.7735027" ry="10" id="c" fill="#fff"/>
	<path d="m-3-2v6l3-3" id="0" fill="#fff"/>
	<path d="m-3 0v2l1 1 1-1v-2l-1-1" id="1"/>
	<path d="m0-6l4 2-1 7-3 5-3-5-1-7" id="b"/>
	<path d="m3-3v2l.5.5 1-3Q5-5 4-5h-2v1zM0 6l1-1 .5.5-1 3Q0 10-.5 8.5l-1-3 .5-.5zM-3-3v2l-.5.5-1-3Q-5-5-4-5h2v1" id="f"/>
</defs>
<mask id="m">
<g transform="scale(1.7320508 1)">
<g><use href="#c"/><use href="#b"/><use/><use href="#f"/></g><script id="s">//<![CDATA[
const script = document.getElementById("s");
const template = script.previousElementSibling;

const rot = [0, 0x176, 0x2EC, 0x39A, 0x4FB, 0x58D];
const x = [
 2, 0, 1,-1,
 4, 5, 3, 4,
 0, 1, 2, 3
];
const y = [
 3, 3, 0, 0,
-3, 0, 0, 3,
-3,-6,-3,-6
];

for(var id1 = 0; id1 < 6; ++id1)
{
	for(var id0 = 0; id0 < 16; ++id0)
	{
		var marker = template.cloneNode(true);
		const bin = (id0 * 0x111) ^ rot[id1];	//binary bit pattern
		if(bin)
		{
			marker.setAttribute("transform", "translate(" + (7 * id0) + ' ' + (21 * (2 * id1 + (id0 & 1))) + ')');
		}
		template.before(marker);
		marker = marker.children[2];

		for(var i = 0; i < 12; ++i)
		{
			const bit = document.createElementNS("http://www.w3.org/2000/svg", "use");
			const bool = (bin >> i) & 1;
			
			bit.setAttribute("href", '#' + bool);
			if(x[i])	// only set if it's non-zero
				bit.setAttribute("x", x[i].toString());
			if(y[i])	// only set if it's non-zero
				bit.setAttribute("y", y[i].toString());

			if(bool)
				marker.after(bit);
			else
				marker.before(bit);
		}
		marker.remove();
	}
}

template.remove();
script.remove();
//]]></script>
</g>
</mask>
<circle r="999" mask="url(#m)"/>
</svg>