<svg viewBox="-4 -4 8 8" xmlns="http://www.w3.org/2000/svg">
	<defs>
		<path d="m-1-3v6l3-3" fill="#fff" id="0"/>
		<path d="m0-2l1 1v2L0 2-1 1v-2" id="1"/>
	</defs>
	<mask id="m">
		<circle r="4" fill="#fff"/>
		<g transform="scale(.4330127,.25)">
			<path d="m-6-2l2-6h8l2 6-4 12h-4zm0 6v-4l4-12v1h4v-1l4 12v4l-2 6v-1h-8v1"/>
<script id="s">//<![CDATA[
const href = document.defaultView.location.href;
const q_pos = href.indexOf("#") + 1;
const script = document.getElementById("s");	// the id definitely exists

const x = new Int8Array([
 0,-1, 1, 0,
-2,-4,-3,-5,
-2,-4,-6,-5,
 1, 3, 2, 4,
 5, 6, 4, 5,
 2, 3, 4, 2,
-1,-2,-3,-4,
-3,-2,-1, 0,
 0, 1, 2, 3
]);
const y = new Int8Array([
 2,  5,  5,  8,
 8,  8,  5,  5,
 2,  2,  2, -1,
-1, -1, -4, -4,
-1,  2,  2,  5,
 2,  5,  8,  8,
-1, -4, -1, -4,
-7,-10, -7,-10,
-4, -7,-10, -7
]);

if(q_pos)	// if the query exists, it should only include the hex data
{
	const hex = href.substring(q_pos);	// hexadecimal encoded string of bit states
	const bin = BigInt("0x" + hex);	//convert to binary
	for(var i = 0; i < 36; ++i)
	{
		const bit = document.createElementNS("http://www.w3.org/2000/svg", "use");
		const bool = Boolean((bin >> BigInt(i)) & 1n);
		bit.setAttribute("href", '#'+(+bool));
		if(x[i])	// only set if it's non-zero
			bit.setAttribute("x", x[i].toString());
		bit.setAttribute("y", y[i].toString());	// y is never non-zero

		if(bool)
			script.after(bit);
		else
			script.before(bit);
	}
	script.remove();
}
//]]></script>
			<path d="m7-5q1-3-1-3h-2v2l1 1v2l1 1zM0 10l1-1 1 1-1 3q-1 3-2 0" id="l"/>
			<use href="#l" transform="scale(-1 1)"/>
		</g>
	</mask>
	<circle r="4" mask="url(#m)"/>
</svg>