<svg viewBox="-4 -4 8 8" xmlns="http://www.w3.org/2000/svg">
	<defs>
		<path d="m-1-3v6l3-3" fill="#fff" id="0"/>
		<path d="m0-2l1 1v2L0 2-1 1v-2" id="1"/>
	</defs>
	<mask id="m">
		<circle r="4" fill="#fff"/>
		<circle r="2.6457513"/>
		<g transform="scale(.34641016,.2)">
			<path d="m-8 0v4l3 9v-1H5v1l3-9v-4L3-15v1h-6v-1"/>
<script id="s">//<![CDATA[
const href = document.defaultView.location.href;
const q_pos = href.indexOf("#") + 1;
const script = document.getElementById("s");	// the id definitely exists

const x = new Int8Array([
 0,-1, 1, 0,
 2, 1, 4, 3,
 3, 2, 5, 4,
 6, 5, 7, 6,
 5, 6, 7, 8,
 1, 3, 2, 4,
 3, 5, 2, 4,
 1, 0, 0,-1,
-2,-3,-4,-5,
 3, 1,-1,-3,
-1,-2,-3,-4,
-5,-6,-6,-7,
-4,-2,-5,-3,
-4,-2,-3,-1,
-8,-7,-6,-5
]);
const y = new Int8Array([
  2,  5,  5,  8,
  8, 11,  8, 11,
  5,  2,  5,  2,
  2, -1, -1, -4,
 11,  8,  5,  2,
 -1, -1, -4, -4,
 -7, -7,-10,-10,
 -7, -4,-10, -7,
-10, -7,-10, -7,
-13,-13,-13,-13,
 -1, -4, -1, -4,
 -1, -4,  2, -1,
  2,  2,  5,  5,
  8,  8, 11, 11,
  2,  5,  8, 11
]);

if(q_pos)	// if the query exists, it should only include the hex data
{
	const hex = href.substring(q_pos);	// hexadecimal encoded string of bit states
	const bin = BigInt("0x" + hex);	//convert to binary
	for(var i = 0; i < 60; ++i)
	{
		const bit = document.createElementNS("http://www.w3.org/2000/svg", "use");
		const bool = Boolean((bin >> BigInt(i)) & 1n);
		bit.setAttribute("href", '#'+(+bool));
		if(x[i])	// only set if it's non-zero
			bit.setAttribute("x", x[i].toString());
		bit.setAttribute("y", y[i].toString());	// y is never non-zero

		if(bool)
			script.after(bit);
		else
			script.before(bit);
	}
	script.remove();
}
//]]></script>
			<path d="m9-7q1-3-1-3h-3v1l1 1v2l1 1v2l.5.5zM0 12l1 1 1-1 .5.5L1 17q-1 3-2 0" id="l"/>
			<use href="#l" transform="scale(-1 1)"/>
		</g>
	</mask>
	<circle r="4" mask="url(#m)"/>
</svg>