<svg viewBox="-4 -4 8 8" xmlns="http://www.w3.org/2000/svg">
	<defs>
		<polygon points="0,2 -1,1 -1,-1 0,-2 1,-1 1,1" id="1"/>
		<ellipse id="0" rx="1.15470054" ry="2" fill="#FFF"/>
	</defs>
	<!--mask id="E" fill="#FFF">
		<polygon points="-1,0 0,6 1,5 2,6 4,4 4,2 4,0 3,-1 3,-3 2,-4 2,-6 0,-8" id="R"/>
		<use href="#R" transform="scale(-1,1)"/>
	</mask-->
	<mask id="M">
		<circle r="4" fill="#FFF"/>
		<polygon points="0,4 -3.46410162,-2 3.46410162,-2"/>
		<g transform="scale(.461880215,.266666667)"><!-- mask="url(#E)" -->
			<!--polygon points="0,-12 -6,-6 -6,6 0,12 6,6 6,-6"/-->
			<script id="S">//<![CDATA[
const href = document.defaultView.location.href;
const q_pos = href.indexOf("?") + 1;
const script = document.getElementById("S");	// the id definitely exists

const x = new Int8Array([
 0,-1, 1, 0,
-2,-4,-3,-5,
-2,-4,-6,-5,
 1, 3, 2, 4,
 5, 6, 4, 5,
 2, 3, 4, 2,
-1,-2,-3,-4,
-3,-2,-1, 0,
 0, 1, 2, 3
]);
const y = new Int8Array([
 2,  5,  5,  8,
 8,  8,  5,  5,
 2,  2,  2, -1,
-1, -1, -4, -4,
-1,  2,  2,  5,
 2,  5,  8,  8,
-1, -4, -1, -4,
-7,-10, -7,-10,
-4, -7,-10, -7
]);

if(q_pos)	// if the query exists, it should only include the hex data
{
	const hex = href.substring(q_pos);	// hexadecimal encoded string of bit states
	const bin = BigInt("0x" + hex);	//convert to binary
	for(var i = 0; i < 36; ++i)
	{
		const bit = document.createElementNS("http://www.w3.org/2000/svg", "use");
		const bool = Boolean((bin >> BigInt(i)) & 1n);
		bit.setAttribute("href", '#'+(+bool));
		if(x[i])	// only set if it's non-zero
			bit.setAttribute("x", x[i].toString());
		bit.setAttribute("y", y[i].toString());	// y is never non-zero

		if(bool)
			script.after(bit);
		else
			script.before(bit);
	}
	script.remove();
}
			//]]></script>
		</g>
	</mask>
	<circle r="4" mask="url(#M)"/>
</svg>