<svg viewBox="-9 -9 18 18" xmlns="http://www.w3.org/2000/svg">
	<defs>
		<path d="m-1-3v6l3-3" fill="#fff" id="0"/>
		<path d="m0-2l1 1v2L0 2-1 1v-2" id="1"/>
	</defs>
	<mask id="m">
		<circle r="9" fill="#fff"/>
		<g transform="scale(.8660254,.5)">
			<path d="m-7-3l5 15h4l5-15-2-6h-10zm0 2v4l3 9v-1h8v1l3-9v-4l-4-12v1h-6v-1"/>
<script id="s">//<![CDATA[
const href = document.defaultView.location.href;
const q_pos = href.indexOf("#") + 1;
const script = document.getElementById("s");	// the id definitely exists

const x = new Int8Array([
 0, 1,-1, 0,
-2,-1,-4,-3,
-3,-2,-5,-4,
-6,-5,-7,-6,
-1,-3,-2,-4,
-3,-5,-2,-4,
-1, 0, 0, 1,
 2, 3, 4, 5,
 1, 2, 3, 4,
 5, 6, 6, 7,
 4, 2, 5, 3,
 4, 2, 3, 1
]);
const y = new Int8Array([
-2, -5, -5, -8,
-8,-11, -8,-11,
-5, -2, -5, -2,
-2,  1,  1,  4,
 1,  1,  4,  4,
 7,  7, 10, 10,
 7,  4, 10,  7,
10,  7, 10,  7,
 1,  4,  1,  4,
 1,  4, -2,  1,
-2, -2, -5, -5,
-8, -8,-11,-11
]);

if(q_pos)	// if the query exists, it should only include the hex data
{
	const hex = href.substring(q_pos);	// hexadecimal encoded string of bit states
	const bin = BigInt("0x" + hex);	//convert to binary
	for(var i = 0; i < 48; ++i)
	{
		const bit = document.createElementNS("http://www.w3.org/2000/svg", "use");
		const bool = Boolean((bin >> BigInt(i)) & 1n);
		bit.setAttribute("href", '#'+(+bool));
		if(x[i])	// only set if it's non-zero
			bit.setAttribute("x", x[i].toString());
		bit.setAttribute("y", y[i].toString());	// y is never non-zero

		if(bool)
			script.after(bit);
		else
			script.before(bit);
	}
	script.remove();
}
//]]></script>
			<path d="m8-6q1-3-1-3h-2v2l1 1v2l1 1zM0 12l1-1 1 1-1 3q-1 3-2 0" id="l"/>
			<use href="#l" transform="scale(-1 1)"/>
		</g>
	</mask>
	<circle r="9" mask="url(#m)"/>
</svg>