<svg viewBox="-2 -2 4 4" xmlns="http://www.w3.org/2000/svg">
	<defs>
		<polygon points="0,2 -1,1 -1,-1 0,-2 1,-1 1,1" id="H"/>
		<ellipse id="C" rx="1.15470054" ry="2" fill="#FFF"/>
	</defs>
	<mask id="M">
		<circle r="2" fill="#FFF"/>
		<g transform="scale(.346410162 .2)">
			<polygon points="0,10 -5,-5 5,-5"/>
			<polygon points="0,-6 -3,3 3,3"/>
			<use href="#C" y="-5" x="-1"/>
			<use href="#C" y="-5" x="1"/>
			<use href="#C" y="-2"/>
			<use href="#C" y="-2" x="2"/>
			<use href="#C" y="1" x="3"/>
			<use href="#C" y="4" x="2"/>
			<use href="#C" y="1" x="1"/>
			<use href="#C" y="4"/>
			<use href="#H" y="4" x="-2"/>
			<use href="#H" y="1" x="-3"/>
			<use href="#H" y="1" x="-1"/>
			<use href="#H" y="-2" x="-2"/>
			<g id="R">
				<polygon points="0,10 0,6 1,5 1.5,5.5"/>
				<polygon points="5,-5 2,-5 2,-4 3,-3 3,-1 3.5,-.5"/>
			</g>
			<use href="#R" transform="scale(-1, 1)"/>
		</g>
	</mask>
	<circle r="2" mask="url(#M)"/>
</svg>