<svg viewBox="-4 -4 8 8" xmlns="http://www.w3.org/2000/svg"><defs><polygon points="0,2 -1,1 -1,-1 0,-2 1,-1 1,1" id="H"/><ellipse id="C" rx="1.15470054" ry="2" fill="#FFF"/></defs><mask id="E" fill="#FFF"><polygon points="-1,0 0,6 1,5 2,6 4,4 4,2 4,0 3,-1 3,-3 2,-4 2,-6 0,-8" id="R"/><use href="#R" transform="scale(-1,1)"/></mask><mask id="M"><circle r="4" fill="#FFF"/><polygon points="0,4 -3.46410162,-2 3.46410162,-2"/><g mask="url(#E)" transform="scale(.692820323,.4)"><polygon points="-3,3 0,-6 3,3"/><use href="#C" x="-2" y="4"/><use href="#C" x="-3" y="1"/><use href="#C" x="3" y="1"/><use href="#C" x="-2" y="-2"/><use href="#C" x="-1" y="-5"/><use href="#C" y="-2"/><use href="#H" y="4"/><use href="#H" x="-1" y="1"/><use href="#H" x="2" y="-2"/><use href="#H" x="1" y="1"/><use href="#H" x="2" y="4"/><use href="#H" x="1" y="-5"/></g></mask><circle r="4" mask="url(#M)"/></svg>